<?xml version="1.0" standalone="no"?>
<!DOCTYPE svg PUBLIC "-//W3C//DTD SVG 20010904//EN"
 "http://www.w3.org/TR/2001/REC-SVG-20010904/DTD/svg10.dtd">
<svg version="1.0" xmlns="http://www.w3.org/2000/svg"
 width="182.000000pt" height="182.000000pt" viewBox="0 0 182.000000 182.000000"
 preserveAspectRatio="xMidYMid meet">

<g transform="translate(0.000000,182.000000) scale(0.100000,-0.100000)"
fill="#000000" stroke="none">
<path d="M859 1806 c-62 -13 -129 -52 -171 -100 -49 -56 -501 -770 -526 -830
-20 -50 -24 -72 -20 -130 11 -167 135 -292 301 -306 l68 -5 24 -58 c89 -220
306 -369 540 -370 165 -1 295 48 411 156 76 71 123 142 162 245 22 58 26 84
26 187 1 92 -3 133 -18 175 -33 99 -79 173 -151 246 -82 82 -193 143 -298 164
-37 8 -67 18 -67 23 0 4 14 28 31 53 61 89 83 152 84 235 0 68 -4 84 -35 145
-68 133 -215 203 -361 170z m159 -102 c49 -20 100 -70 123 -119 23 -49 24
-133 4 -182 -11 -26 -249 -409 -281 -452 -2 -2 -352 216 -393 245 -5 4 42 83
67 114 l19 24 53 -33 c45 -28 57 -31 77 -22 16 8 23 19 23 40 0 24 -8 34 -50
60 -28 17 -50 34 -50 39 0 4 11 24 25 44 l25 38 97 -65 c95 -63 115 -71 147
-59 22 8 20 57 -1 76 -10 9 -56 39 -103 68 -47 28 -87 53 -88 55 -7 6 44 74
71 95 61 48 166 63 235 34z m-404 -710 c126 -80 194 -130 189 -137 -4 -7 -44
-68 -89 -137 -72 -111 -88 -129 -136 -155 -175 -96 -384 62 -334 253 7 28 47
104 92 176 43 69 80 125 81 126 1 0 90 -57 197 -126z m640 72 c37 -13 85 -36
108 -51 l41 -27 -349 -349 c-192 -192 -352 -349 -357 -349 -12 0 -67 92 -79
134 -11 35 -10 40 7 50 60 35 116 107 277 358 l173 270 56 -6 c31 -3 86 -16
123 -30z m246 -185 c136 -192 108 -463 -65 -637 -103 -103 -233 -151 -381
-142 -93 6 -158 27 -233 75 l-54 35 349 349 c192 192 352 349 356 349 4 0 16
-13 28 -29z"/>
</g>
</svg>
